# xmcd
#
# Track frame offsets:
#	150
#	19940
#	39887
#	53831
#	69918
#	91636
#	124471
#	143223
#	157692
#	179116
#	194982
#
# Disc length: 2782 seconds
# Revision: 0
# Processed by: cddbd v1.5.2PL0 Copyright (c) Steve Scherf et al.
# Submitted via: dBpowerAMP V12.0
#
DISCID=960adc0b
DTITLE=Susan Tedeschi - Wait For Me
DYEAR=2002
DGENRE=Blues Female 
TTITLE0=Alone
TTITLE1=Gonna Move
TTITLE2=Wrapped In The Arms Of Another
TTITLE3='Til I Found You
TTITLE4=Wait For Me
TTITLE5=Feeling Music Brings
TTITLE6=In The Garden
TTITLE7=Hampmotized
TTITLE8=Don't Think Twice
TTITLE9=I Fell In Love
TTITLE10=Blues On A Holiday
EXTD=
EXTT0=
EXTT1=
EXTT2=
EXTT3=
EXTT4=
EXTT5=
EXTT6=
EXTT7=
EXTT8=
EXTT9=
EXTT10=
PLAYORDER=
